<svg width="53" height="53" viewBox="0 0 53 53" fill="none" xmlns="http://www.w3.org/2000/svg">
<path d="M52.6895 19.2539L49.9099 15.5479L48.3644 26.3665C48.2229 27.3575 47.7549 28.2933 47.0467 29.0014L28.0157 48.0325C26.3557 49.6927 24.146 50.607 21.794 50.607C21.091 50.607 20.4013 50.5236 19.7346 50.3648C20.747 51.9476 22.5189 53 24.5332 53H47.3066C50.446 53 53 50.446 53 47.3067V20.1856C53 19.8497 52.891 19.5227 52.6895 19.2539Z" fill="#A5A7AE"/>
<path d="M32.0415 25.7965C32.8991 25.7965 33.5942 25.1013 33.5942 24.2438C33.5942 23.3862 32.8991 22.691 32.0415 22.691C31.184 22.691 30.4888 23.3862 30.4888 24.2438C30.4888 25.1013 31.184 25.7965 32.0415 25.7965Z" fill="#A5A7AE"/>
<path d="M14.4742 25.7965C15.3318 25.7965 16.027 25.1013 16.027 24.2438C16.027 23.3862 15.3318 22.691 14.4742 22.691C13.6167 22.691 12.9215 23.3862 12.9215 24.2438C12.9215 25.1013 13.6167 25.7965 14.4742 25.7965Z" fill="#A5A7AE"/>
<path d="M25.82 45.8366L44.8512 26.8055C45.0887 26.5679 45.2429 26.2598 45.2904 25.9272L47.4864 10.5558C47.5554 10.072 47.3928 9.58379 47.0471 9.23826L43.7533 5.94439L39.3615 10.3362L40.4595 11.4342C41.0659 12.0405 41.0659 13.0237 40.4595 13.6301C40.1563 13.9333 39.7589 14.085 39.3616 14.085C38.9643 14.085 38.5668 13.9333 38.2637 13.6301L33.8719 9.23826C33.2655 8.63197 33.2655 7.64878 33.8719 7.04238C34.4782 6.43609 35.4614 6.43609 36.0678 7.04238L37.1657 8.14037L41.5575 3.74851L38.2636 0.454646C37.9181 0.109007 37.4299 -0.0530983 36.9461 0.0154291L21.5746 2.21141C21.242 2.25892 20.9339 2.41306 20.6963 2.65063L1.66516 21.6818C-0.554729 23.9016 -0.554729 27.5136 1.66516 29.7334L17.7684 45.8366C18.8783 46.9466 20.3363 47.5015 21.7942 47.5015C23.2521 47.5015 24.7101 46.9466 25.82 45.8366ZM32.0417 19.5855C34.6103 19.5855 36.6999 21.6751 36.6999 24.2437C36.6999 26.8122 34.6103 28.9019 32.0417 28.9019C29.4732 28.9019 27.3835 26.8122 27.3835 24.2437C27.3835 21.6751 29.4732 19.5855 32.0417 19.5855ZM14.4745 28.9019C11.906 28.9019 9.8163 26.8122 9.8163 24.2437C9.8163 21.6751 11.906 19.5855 14.4745 19.5855C17.043 19.5855 19.1327 21.6751 19.1327 24.2437C19.1327 26.8122 17.0431 28.9019 14.4745 28.9019ZM19.5985 36.7763C19.4358 36.7763 19.2702 36.7505 19.1073 36.6963C18.2938 36.4251 17.8542 35.5458 18.1253 34.7322L25.4449 12.7731C25.7161 11.9596 26.5955 11.52 27.409 11.7911C28.2225 12.0623 28.6621 12.9415 28.391 13.7552L21.0714 35.7142C20.8545 36.3647 20.2486 36.7763 19.5985 36.7763Z" fill="#A5A7AE"/>
<path d="M47.0468 2.65072C47.6532 2.04443 47.6532 1.06123 47.0468 0.45484C46.4405 -0.151451 45.4573 -0.151451 44.8509 0.45484L41.5571 3.74871L43.753 5.94458L47.0468 2.65072Z" fill="#A5A7AE"/>
</svg>
