<svg width="53" height="53" viewBox="0 0 53 53" fill="none" xmlns="http://www.w3.org/2000/svg">
<path d="M39.35 42.5923C48.1231 42.2396 52.0225 38.2466 52.0225 33.36C52.0225 29.1154 49.0769 25.544 42.5525 24.4471C42.5815 22.8684 42.5837 21.3456 42.5837 19.9239H0.977539C0.977539 29.2197 0.988294 42.7224 9.33985 49.1716C4.27149 49.5598 0.977539 50.1771 0.977539 50.8718C0.977539 52.0483 10.2916 53 21.7811 53C33.2707 53 42.5837 52.0483 42.5837 50.8718C42.5837 50.1771 39.2897 49.5587 34.2224 49.1716C36.4894 47.4219 38.1466 45.1571 39.35 42.5923ZM42.3976 28.4895C46.0583 29.338 46.7121 31.1328 46.6702 33.4568C46.624 36.0958 45.8593 37.882 40.8609 38.4972C41.7653 35.2849 42.1933 31.8361 42.3976 28.4895ZM5.99966 23.1501H12.5037C9.58826 31.7533 14.5071 45.3657 14.5061 45.3657C3.87252 37.2153 5.99966 23.1501 5.99966 23.1501Z" fill="white"/>
<path d="M25.1848 14.3168C26.0118 6.82341 42.5557 10.5723 39.108 0.844193C38.5811 -0.643085 36.199 -0.00214672 36.7314 1.49911C38.2434 5.76415 32.4986 6.28356 29.5735 7.2611C26.0602 8.43544 23.1523 10.3991 22.72 14.3168C22.5458 15.8955 25.0127 15.8783 25.1848 14.3168Z" fill="white"/>
<path d="M36.9281 9.07315C33.7019 9.83346 30.7532 11.2153 29.7477 14.6072C29.2949 16.1353 31.6737 16.7827 32.1243 15.2621C33.2341 11.5165 38.1541 11.4541 41.2953 10.5421C44.6689 9.56246 46.5992 7.22562 46.1357 3.63808C45.9335 2.08413 43.4687 2.06477 43.6709 3.63808C44.2312 7.97624 40.2393 8.29134 36.9281 9.07315Z" fill="white"/>
</svg>
