<svg width="53" height="53" viewBox="0 0 53 53" fill="none" xmlns="http://www.w3.org/2000/svg">
<path d="M53 14.3922V11.3572L26.5 0L0 11.3572V14.3922H53Z" fill="#A5A7AE"/>
<path d="M20.9249 31.6167H24.9472V35.639H20.9249V31.6167Z" fill="#A5A7AE"/>
<path d="M20.9249 38.7445H24.9472V42.7667H20.9249V38.7445Z" fill="#A5A7AE"/>
<path d="M13.7971 38.7445H17.8193V42.7667H13.7971V38.7445Z" fill="#A5A7AE"/>
<path d="M39.2028 42.7667V24.4888H13.7971V35.6389H17.8194V28.5112H28.0527V35.6389H35.1805V42.7667H39.2028Z" fill="#A5A7AE"/>
<path d="M28.0527 38.7445H32.075V42.7667H28.0527V38.7445Z" fill="#A5A7AE"/>
<path d="M0 45.8722H53V53H0V45.8722Z" fill="#A5A7AE"/>
<path d="M49.4361 42.7668V17.4977H3.56396V42.7668H10.6917V21.3833H42.3083V42.7668H49.4361Z" fill="#A5A7AE"/>
</svg>
