<svg width="53" height="53" viewBox="0 0 53 53" fill="none" xmlns="http://www.w3.org/2000/svg">
<path d="M49.4877 31.9311C48.3004 30.8413 46.8201 29.8382 45.108 28.9591C43.5107 37.7761 35.7636 44.4847 26.4752 44.4847C17.195 44.4847 9.45305 37.7875 7.84648 28.9819C6.15297 29.8569 4.68926 30.8506 3.51229 31.9312C1.21424 34.0417 0 36.4869 0 39.0044C0 42.9464 2.89947 46.5641 8.16531 49.1911C13.0885 51.6467 19.5996 53 26.5 53C33.3993 53 39.9115 51.6467 44.8347 49.1912C50.0995 46.5642 53 42.9466 53 39.0045C53 36.4869 51.7847 34.0417 49.4877 31.9311Z" fill="#A5A7AE"/>
<path d="M26.4751 41.3855C35.2029 41.3855 42.3036 34.2994 42.3036 25.5894C42.3036 14.4281 28.1208 1.487 27.517 0.941475L26.4751 0L25.4331 0.941475C24.8292 1.4869 10.6465 14.428 10.6465 25.5893C10.6465 34.2993 17.7471 41.3855 26.4751 41.3855ZM25.7429 30.7025C28.7756 30.7025 31.2428 28.2404 31.2428 25.2139H34.3482C34.3482 29.9492 30.4879 33.8017 25.7429 33.8017V30.7025Z" fill="#A5A7AE"/>
</svg>
