<svg width="53" height="53" viewBox="0 0 53 53" fill="none" xmlns="http://www.w3.org/2000/svg">
<path d="M51.667 18.7525L49.1683 18.4094C48.6921 16.5353 47.9535 14.7543 46.9607 13.0903L48.4156 11.1505C48.8788 10.5329 48.8177 9.66775 48.2708 9.12088L43.879 4.72902C43.3322 4.18215 42.467 4.12118 41.8492 4.58441L39.9096 6.03932C38.2456 5.0465 36.4647 4.30761 34.5903 3.83175L34.2472 1.33278C34.1411 0.563967 33.484 -0.00319544 32.7108 1.35489e-05H26.5006C25.7286 1.35489e-05 25.0724 0.568314 24.964 1.33267L24.6199 3.83258C22.7457 4.30875 20.9647 5.04754 19.3016 6.03922L17.3621 4.58431C16.7445 4.12107 15.8793 4.18215 15.3324 4.72892L10.9406 9.12077C10.3937 9.66765 10.3327 10.5328 10.796 11.1504L12.2509 13.0902C11.337 14.6185 10.5476 16.4251 10.0431 18.4093L7.64785 18.7524C6.88339 18.8608 6.31519 19.517 6.31519 20.289V26.4992C6.31292 27.2735 6.88235 27.9285 7.64785 28.0358L10.0442 28.3797C10.1343 28.7325 10.2857 29.0758 10.3987 29.4259L14.1234 25.701C14.062 21.5302 15.7532 17.4834 18.6263 14.6104C21.518 11.7187 25.3598 10.1158 29.4407 10.0986C31.2785 10.089 33.0247 11.1885 33.7627 12.9711C34.4886 14.7134 34.094 16.7099 32.7537 18.0501L28.5849 22.2189L28.9505 24.0492L30.7809 24.4148L34.9497 20.246C36.2899 18.9058 38.2864 18.5113 40.0362 19.2403C41.7944 19.966 42.9077 21.7075 42.9011 23.5571C42.8838 27.64 41.2809 31.4818 38.3893 34.3735C35.5831 37.1797 31.5553 38.9391 27.2985 38.8764L23.5744 42.6006C23.9238 42.7138 24.2682 42.8659 24.6197 42.9557L24.9638 45.3521C25.0699 46.1145 25.7284 46.6847 26.5004 46.6847H32.7108C33.4829 46.6847 34.1391 46.1164 34.2473 45.3521L34.5904 42.9566C36.3018 42.5216 38.2284 41.7542 39.9097 40.749L41.8493 42.2039C42.467 42.6672 43.3323 42.6061 43.8792 42.0593L48.2709 37.6675C48.8178 37.1206 48.879 36.2554 48.4157 35.6378L46.9608 33.6981C47.9525 32.0352 48.6914 30.2543 49.1672 28.3799L51.6671 28.0359C52.4317 27.9275 53 27.2713 53 26.4993V20.2891C53.002 19.515 52.4326 18.8577 51.667 18.7525Z" fill="white"/>
<path d="M0.454718 45.9573C0.675931 46.1785 2.87181 48.3744 2.6506 48.1532L19.7243 31.0795C20.3308 30.4731 21.3137 30.4731 21.9201 31.0795C22.5265 31.6859 22.5266 32.669 21.9201 33.2756L4.84668 50.349C5.06769 50.5702 7.26356 52.7661 7.04256 52.5451C7.64895 53.1515 8.63204 53.1515 9.23843 52.5451L26.0945 35.6889C29.8299 36.1122 33.5022 34.8687 36.1934 32.1776C38.5029 29.8681 39.7822 26.8026 39.7962 23.5462C39.7983 22.9178 39.4219 22.3463 38.8408 22.1062C38.2597 21.864 37.5905 21.9968 37.1457 22.4419L31.8017 27.7857L26.312 26.6879L25.214 21.1981L30.558 15.8542C31.003 15.4091 31.1359 14.7402 30.8937 14.1591C30.6524 13.5768 30.0809 13.2004 29.4537 13.2036C26.1973 13.2176 23.1319 14.4966 20.8222 16.8063C18.1312 19.4974 16.8877 23.17 17.311 26.9053L0.454718 43.7614C-0.151573 44.3678 -0.151573 45.3509 0.454718 45.9573Z" fill="white"/>
</svg>
