<svg width="53" height="53" viewBox="0 0 53 53" fill="none" xmlns="http://www.w3.org/2000/svg">
<path d="M53 3.93359H0V42.4588H32.0692V38.5624C30.2747 36.875 29.1522 34.4804 29.1522 31.8286C29.1522 26.7297 33.3005 22.5814 38.3994 22.5814C43.4984 22.5814 47.6463 26.7297 47.6463 31.8286C47.6463 34.4804 46.5238 36.875 44.7297 38.5624V42.4588H53V3.93359ZM42.1236 10.1494V13.2549H10.8764V10.1494H42.1236ZM6.21458 30.0268V26.9213H21.3202V30.0268H6.21458ZM21.3202 33.1375V36.243H6.21458V33.1375H21.3202ZM46.7854 19.471H6.21458V16.3656H46.7854V19.471Z" fill="#A5A7AE"/>
<path d="M41.6243 49.087V40.4952C40.6195 40.8701 39.533 41.0755 38.3996 41.0755C37.2657 41.0755 36.1792 40.8701 35.1748 40.4952V49.087L38.3996 47.5117L41.6243 49.087Z" fill="#A5A7AE"/>
<path d="M32.2576 31.8287C32.2576 35.2152 35.0129 37.9701 38.3994 37.9701C41.7859 37.9701 44.5407 35.2152 44.5407 31.8287C44.5407 28.4422 41.7859 25.6869 38.3994 25.6869C35.0129 25.6869 32.2576 28.4422 32.2576 31.8287Z" fill="#A5A7AE"/>
</svg>
