<svg width="49" height="53" viewBox="0 0 49 53" fill="none" xmlns="http://www.w3.org/2000/svg">
<path d="M34.073 35.2636C36.6261 31.7145 38.1957 27.6363 38.6857 23.3316L24.5001 19.2979L10.3143 23.3316C10.8042 27.6362 12.3738 31.7145 14.927 35.2636C17.4129 38.719 20.7121 41.4989 24.5001 43.3377C28.288 41.4989 31.5872 38.719 34.073 35.2636Z" fill="#A5A7AE"/>
<path d="M24.5 16.0067L38.8518 20.0877V13.505L24.5 9.42395L10.1483 13.505V20.0877L24.5 16.0067Z" fill="#A5A7AE"/>
<path d="M26.083 0V6.5827L42.0177 11.1139V20.4025C42.0177 26.4467 40.1592 32.2249 36.643 37.1126C33.8943 40.9333 30.2585 44.0191 26.083 46.087V53.0001C32.3882 50.5431 37.7995 46.3472 41.7828 40.8102C46.0786 34.8388 48.3493 27.7819 48.3493 20.4025V6.33165L26.083 0Z" fill="#A5A7AE"/>
<path d="M22.9172 46.0869C18.7417 44.019 15.1058 40.9332 12.3573 37.1125C8.84108 32.2249 6.98253 26.4467 6.98253 20.4024V11.1138L22.9172 6.58259V0L0.650879 6.33165V20.4024C0.650879 27.7818 2.92162 34.8387 7.21743 40.8101C11.2008 46.3471 16.6121 50.543 22.9172 53V46.0869Z" fill="#A5A7AE"/>
</svg>
