<svg width="35" height="51" viewBox="0 0 35 51" fill="none" xmlns="http://www.w3.org/2000/svg">
<path d="M25.2637 33.2637C25.2637 30.695 23.1741 28.6055 20.6055 28.6055C18.0368 28.6055 15.9473 30.695 15.9473 33.2637C15.9473 35.8323 18.0368 37.9219 20.6055 37.9219C23.1741 37.9219 25.2637 35.8323 25.2637 33.2637ZM19.0527 31.7109H22.1582V34.8164H19.0527V31.7109Z" fill="white"/>
<path d="M20.6055 47.2383L26.8164 50.3438L23.7561 40.3448C22.7911 40.7762 21.729 41.0274 20.6055 41.0274C19.4819 41.0274 18.4196 40.776 17.4546 40.3447L14.3945 50.3438L20.6055 47.2383Z" fill="white"/>
<path d="M22.1582 0.65625H0.419922V47.2383H12.0971L14.8091 38.376C13.5999 37.0068 12.8418 35.2296 12.8418 33.2637C12.8418 28.983 16.3248 25.5 20.6055 25.5C24.8862 25.5 28.3691 28.983 28.3691 33.2637C28.3691 35.2296 27.6108 37.0068 26.4017 38.3762L29.1136 47.2383H34.6836V13.0781H22.1582V0.65625ZM6.63086 13.0781H19.0527V16.1836H6.63086V13.0781ZM28.3691 19.2891V22.3945H6.63086V19.2891H28.3691Z" fill="white"/>
<path d="M25.2637 9.97266H33.7738L25.2637 1.56606V9.97266Z" fill="white"/>
</svg>
