<svg width="53" height="53" viewBox="0 0 53 53" fill="none" xmlns="http://www.w3.org/2000/svg">
<path d="M43.034 45.1461V38.5154C43.034 37.0907 41.879 35.9357 40.4543 35.9357H39.78V11.7283C39.78 11.5117 39.6713 11.3097 39.4907 11.1903L37.8533 10.108C37.4245 9.82461 36.8528 10.132 36.8528 10.646V18.4205L36.3649 17.1043C35.7086 15.334 34.02 14.159 32.132 14.159H20.8581C18.9589 14.159 17.2629 15.3476 16.6147 17.1327L16.1471 18.4205V10.646C16.1471 10.1321 15.5754 9.82461 15.1466 10.108L13.5091 11.1902C13.3285 11.3096 13.2198 11.5117 13.2198 11.7282V35.9357H12.5455C11.1208 35.9357 9.96581 37.0906 9.96581 38.5154V45.1461H8.86678C8.51063 45.1461 8.22192 45.4348 8.22192 45.791V49.3563C8.22192 49.7125 8.51063 50.0012 8.86678 50.0012H11.649V51.7101C11.649 52.4225 12.2265 52.9999 12.9389 52.9999H16.3567C17.0691 52.9999 17.6466 52.4224 17.6466 51.7101V50.0012H35.3534V51.7101C35.3534 52.4225 35.931 52.9999 36.6432 52.9999H40.0612C40.7735 52.9999 41.351 52.4224 41.351 51.7101V50.0012H44.1332C44.4894 50.0012 44.7781 49.7125 44.7781 49.3563V45.7911C44.7781 45.4349 44.4894 45.1462 44.1332 45.1462L43.034 45.1461ZM17.0016 22.0129H35.9983V28.3674H17.0016V22.0129ZM16.5598 43.3414H14.3567C13.6835 43.3414 13.1378 42.7956 13.1378 42.1224V42.0916C13.1378 41.4184 13.6835 40.8727 14.3567 40.8727H16.5598C17.233 40.8727 17.7787 41.4184 17.7787 42.0916V42.1224C17.7787 42.7956 17.233 43.3414 16.5598 43.3414ZM30.8841 43.7007H22.1158C21.4034 43.7007 20.8259 43.1232 20.8259 42.411V34.2385C20.8259 33.5262 21.4034 32.9487 22.1158 32.9487H30.8841C31.5964 32.9487 32.1739 33.5263 32.1739 34.2385V42.4109C32.174 43.1232 31.5964 43.7007 30.8841 43.7007ZM38.6432 43.3414H36.44C35.7669 43.3414 35.2211 42.7956 35.2211 42.1224V42.0916C35.2211 41.4184 35.7669 40.8727 36.44 40.8727H38.6432C39.3163 40.8727 39.8621 41.4184 39.8621 42.0916V42.1224C39.8621 42.7956 39.3163 43.3414 38.6432 43.3414ZM30.688 37.669H22.2912C21.9386 37.669 21.6527 37.3832 21.6527 37.0305V37.0175C21.6527 36.6649 21.9386 36.3792 22.2912 36.3792H30.688C31.0407 36.3792 31.3265 36.6649 31.3265 37.0175V37.0305C31.3265 37.3832 31.0407 37.669 30.688 37.669ZM30.688 35.0893H22.2912C21.9386 35.0893 21.6527 34.8035 21.6527 34.4508V34.4379C21.6527 34.0853 21.9386 33.7995 22.2912 33.7995H30.688C31.0407 33.7995 31.3265 34.0853 31.3265 34.4379V34.4508C31.3265 34.8035 31.0407 35.0893 30.688 35.0893ZM30.688 42.8284H22.2912C21.9386 42.8284 21.6527 42.5426 21.6527 42.1899V42.177C21.6527 41.8243 21.9386 41.5385 22.2912 41.5385H30.688C31.0407 41.5385 31.3265 41.8243 31.3265 42.177V42.1899C31.3265 42.5426 31.0407 42.8284 30.688 42.8284ZM30.688 40.2487H22.2912C21.9386 40.2487 21.6527 39.9628 21.6527 39.6103V39.5973C21.6527 39.2447 21.9386 38.9589 22.2912 38.9589H30.688C31.0407 38.9589 31.3265 39.2447 31.3265 39.5973V39.6103C31.3265 39.9628 31.0407 40.2487 30.688 40.2487Z" fill="#A5A7AE"/>
<path d="M11.5 14C14.5327 14 17 11.6029 17 8.65643C17 4.88078 12.0719 0.503027 11.8621 0.318484L11.5 0L11.1379 0.318484C10.9281 0.502991 6 4.88074 6 8.6564C6 11.6028 8.46728 14 11.5 14ZM11.2456 10.3861C12.2994 10.3861 13.1567 9.55323 13.1567 8.52942H14.2357C14.2357 10.1313 12.8944 11.4345 11.2456 11.4345V10.3861Z" fill="#A5A7AE"/>
<path d="M26.5 14C29.5327 14 32 11.6029 32 8.65643C32 4.88078 27.0719 0.503027 26.8621 0.318484L26.5 0L26.1379 0.318484C25.9281 0.502991 21 4.88074 21 8.6564C21 11.6028 23.4673 14 26.5 14ZM26.2456 10.3861C27.2994 10.3861 28.1567 9.55323 28.1567 8.52942H29.2357C29.2357 10.1313 27.8944 11.4345 26.2456 11.4345V10.3861Z" fill="#A5A7AE"/>
<path d="M41.5 14C44.5327 14 47 11.6029 47 8.65643C47 4.88078 42.0719 0.503027 41.8621 0.318484L41.5 0L41.1379 0.318484C40.9281 0.502991 36 4.88074 36 8.6564C36 11.6028 38.4673 14 41.5 14ZM41.2456 10.3861C42.2994 10.3861 43.1567 9.55323 43.1567 8.52942H44.2357C44.2357 10.1313 42.8944 11.4345 41.2456 11.4345V10.3861Z" fill="#A5A7AE"/>
</svg>
