<svg width="41" height="53" viewBox="0 0 41 53" fill="none" xmlns="http://www.w3.org/2000/svg">
<path d="M28.3568 32.0419C28.654 31.1397 29.1726 30.2996 29.8488 29.6188L40.3621 19.1479V12.4219H29.4515C28.5933 12.4219 27.9492 11.7274 27.9492 10.8691V0H4.6582C2.08957 0 0 2.08957 0 4.6582V48.3418C0 50.9104 2.08957 53 4.6582 53H35.6625C38.2311 53 40.3621 50.9104 40.3621 48.3418V36.7531L38.6557 38.4181C37.9644 39.1034 37.1547 39.6023 36.2418 39.9071L31.3046 41.5554L30.5524 41.5964C29.309 41.5964 28.1323 40.9914 27.4015 39.9785C26.6767 38.9701 26.4796 37.663 26.8738 36.4818L28.3568 32.0419ZM7.76367 27.9492H23.2406C24.0989 27.9492 24.7933 28.6437 24.7933 29.502C24.7933 30.3602 24.0989 31.0547 23.2406 31.0547H7.76367C6.90542 31.0547 6.21094 30.3602 6.21094 29.502C6.21094 28.6437 6.90542 27.9492 7.76367 27.9492ZM6.21094 23.291C6.21094 22.4328 6.90542 21.7383 7.76367 21.7383H23.2406C24.0989 21.7383 24.7933 22.4328 24.7933 23.291C24.7933 24.1493 24.0989 24.8438 23.2406 24.8438H7.76367C6.90542 24.8438 6.21094 24.1493 6.21094 23.291ZM6.21094 35.7129C6.21094 34.8546 6.90542 34.1602 7.76367 34.1602H23.2406C24.0989 34.1602 24.7933 34.8546 24.7933 35.7129C24.7933 36.5711 24.0989 37.2656 23.2406 37.2656H7.76367C6.90542 37.2656 6.21094 36.5711 6.21094 35.7129ZM29.4515 43.4766C30.3098 43.4766 31.0043 44.171 31.0043 45.0293C31.0043 45.8875 30.3099 46.582 29.4515 46.582H20.1351C19.2769 46.582 18.5824 45.8875 18.5824 45.0293C18.5824 44.171 19.2769 43.4766 20.1351 43.4766H29.4515ZM7.76367 18.6328C6.90542 18.6328 6.21094 17.9383 6.21094 17.0801C6.21094 16.2218 6.90542 15.5273 7.76367 15.5273H29.4515C30.3098 15.5273 31.0043 16.2218 31.0043 17.0801C31.0043 17.9383 30.3098 18.6328 29.4515 18.6328H7.76367Z" fill="white"/>
</svg>
