<svg width="45" height="53" viewBox="0 0 45 53" fill="none" xmlns="http://www.w3.org/2000/svg">
<path d="M22.5001 28.964C26.0434 28.964 34.3742 24.6997 34.3742 14.4819C34.3742 13.0566 34.3396 11.6798 34.2221 10.379C34.0292 7.8188 33.5049 5.5499 32.1993 3.81107C30.5247 1.44479 27.5948 0 22.5001 0C17.4062 0 14.4765 1.44421 12.8019 3.80975C11.4954 5.54902 10.9708 7.81851 10.7781 10.3795C10.6608 11.6802 10.6261 13.0569 10.6261 14.482C10.626 24.6997 18.9568 28.964 22.5001 28.964ZM26.3759 5.30551C26.0302 6.17955 25.8569 6.61664 25.5108 7.49054C23.277 6.85943 21.7228 6.85943 19.489 7.49054C19.1431 6.61664 18.9698 6.17955 18.6238 5.30551C21.4175 4.45981 23.5827 4.45996 26.3759 5.30551ZM12.3924 12.2664C12.5293 12.5656 13.1105 13.7161 14.0101 13.8239C15.0442 13.948 16.7607 10.1616 22.5001 10.1523C28.2393 10.1616 29.956 13.948 30.9901 13.8239C31.8897 13.7159 32.4709 12.5656 32.6078 12.2664C32.6355 12.9996 32.6458 13.7419 32.6458 14.482C32.6458 19.4764 30.4405 22.5711 28.5903 24.2876C26.2593 26.4506 23.6711 27.2356 22.5002 27.2356C21.3294 27.2356 18.7412 26.4506 16.4101 24.2876C14.5598 22.5711 12.3547 19.4764 12.3547 14.482C12.3545 13.7419 12.3646 12.9996 12.3924 12.2664Z" fill="white"/>
<path d="M44.5446 43.8163C43.9383 40.0469 42.6905 35.1913 40.1872 33.4658C38.4776 32.287 32.5133 29.1006 29.9664 27.74L29.9234 27.7171C29.6323 27.5615 29.2767 27.5928 29.0173 27.7965C27.6831 28.8439 26.2217 29.5498 24.6737 29.8945C24.4002 29.9554 24.1756 30.1497 24.0765 30.4116L22.5001 34.5668L20.9236 30.4116C20.8244 30.1497 20.6 29.9554 20.3264 29.8945C18.7785 29.5498 17.3171 28.8439 15.983 27.7965C15.7231 27.5927 15.3678 27.5615 15.0767 27.7171C12.5601 29.0618 6.52291 32.3133 4.82064 33.4608C1.93884 35.4021 0.678958 42.4278 0.455564 43.8164C0.433533 43.9542 0.446311 44.0951 0.492723 44.2267C0.553822 44.3991 1.50688 46.8677 6.27322 48.8526C6.54802 48.5063 6.91403 48.2437 7.32572 48.0959C6.8143 47.9144 6.37045 47.5585 6.08654 47.0809C5.66355 46.3691 5.64783 45.476 6.04454 44.7517C7.26653 42.5149 9.60681 41.1231 12.1551 41.1197C14.5253 41.1197 16.6739 42.2975 17.9498 44.2118H27.0451C27.2948 43.8389 27.5812 43.4901 27.9025 43.1677C29.2171 41.8494 30.9659 41.1221 32.8271 41.1194H32.8285H32.83C35.3762 41.1194 37.7194 42.5035 38.9457 44.7328C39.3431 45.4563 39.3297 46.3477 38.9092 47.0618C38.6269 47.5395 38.1843 47.8966 37.6734 48.0797C38.0923 48.2281 38.4641 48.4947 38.7409 48.847C43.4951 46.8632 44.4467 44.3991 44.5078 44.227C44.554 44.0949 44.5668 43.9539 44.5446 43.8163Z" fill="white"/>
<path d="M36.8916 50.0007H36.8911L32.5089 50.0067C32.4312 49.8222 32.282 49.31 32.2806 48.0878C32.2785 46.8655 32.426 46.3524 32.5035 46.1675L36.8844 46.161C36.9892 46.1604 37.0858 46.1053 37.1388 46.0153C37.1921 45.925 37.1936 45.8139 37.1434 45.7223C36.279 44.151 34.6297 43.1752 32.8299 43.1752C31.5177 43.1771 30.2851 43.69 29.3588 44.6191C28.8815 45.0976 28.5172 45.6581 28.2744 46.2678H16.7202C15.9948 44.459 14.2245 43.1756 12.1551 43.1756C10.3607 43.1781 8.71076 44.1595 7.84905 45.7373C7.79882 45.8289 7.80088 45.9404 7.85419 46.0301C7.90751 46.1199 8.00415 46.1746 8.10858 46.1746H8.10887L12.491 46.1677C12.569 46.3522 12.7179 46.8645 12.7194 48.0871C12.7214 49.3095 12.574 49.8224 12.4964 50.007L8.11548 50.0136C8.01105 50.0138 7.91441 50.0693 7.86109 50.159C7.80807 50.2491 7.80631 50.3605 7.85683 50.4522C8.72089 52.0233 10.3709 52.9999 12.1629 52.9999H12.1701C13.4825 52.9978 14.7148 52.4849 15.6414 51.5556C16.1188 51.0768 16.4829 50.5162 16.7255 49.9066H28.2794C29.005 51.7159 30.7739 52.9991 32.8382 52.9994C32.8382 52.9994 32.8448 52.9994 32.8451 52.9994C34.6392 52.9969 36.2895 52.0149 37.1512 50.4382C37.2014 50.3464 37.1993 50.2348 37.146 50.1452C37.0927 50.0555 36.9961 50.0007 36.8916 50.0007Z" fill="white"/>
</svg>
