<svg width="53" height="53" viewBox="0 0 53 53" fill="none" xmlns="http://www.w3.org/2000/svg">
<path d="M26.5 9.31641C17.0249 9.31641 9.31641 17.0249 9.31641 26.5C9.31641 35.9751 17.0249 43.6836 26.5 43.6836C35.9751 43.6836 43.6836 35.9751 43.6836 26.5C43.6836 17.0249 35.9751 9.31641 26.5 9.31641ZM24.9473 12.4219H28.0527V15.5273H24.9473V12.4219ZM15.5273 28.0527H12.4219V24.9473H15.5273V28.0527ZM28.0527 40.5781H24.9473V37.4727H28.0527V40.5781ZM28.6959 30.8918L26.5 28.6959L24.3041 30.8918L22.1082 28.6959L24.3041 26.5L15.484 17.6798L17.6798 15.484L26.5 24.3041L35.3569 15.4472L37.5528 17.6431L28.6959 26.5L30.8918 28.6959L28.6959 30.8918ZM37.4727 28.0527V24.9473H40.5781V28.0527H37.4727Z" fill="white"/>
<path d="M26.5 0C11.8644 0 0 11.8644 0 26.5C0 41.1356 11.8644 53 26.5 53C41.1356 53 53 41.1356 53 26.5C53 11.8644 41.1356 0 26.5 0ZM26.5 46.7891C15.3125 46.7891 6.21094 37.6875 6.21094 26.5C6.21094 15.3125 15.3125 6.21094 26.5 6.21094C37.6875 6.21094 46.7891 15.3125 46.7891 26.5C46.7891 37.6875 37.6875 46.7891 26.5 46.7891Z" fill="white"/>
</svg>
